<svg width="56" height="31" viewBox="0 0 56 31" fill="none" xmlns="http://www.w3.org/2000/svg">
<path fill-rule="evenodd" clip-rule="evenodd" d="M55.8984 4.10595C55.8984 1.9943 54.6394 0.282471 53.0862 0.282471H3.09069C1.53752 0.282471 0.278439 1.9943 0.278439 4.10595C0.278439 6.21761 1.53752 7.92944 3.09069 7.92944H53.0862C54.6394 7.92944 55.8984 6.21761 55.8984 4.10595Z" fill="black"/>
<path fill-rule="evenodd" clip-rule="evenodd" d="M55.8984 15.6075C55.8984 13.495 54.6394 11.7825 53.0862 11.7825H3.09069C1.53752 11.7825 0.278439 13.495 0.278439 15.6075C0.278439 17.72 1.53752 19.4325 3.09069 19.4325H53.0862C54.6394 19.4325 55.8984 17.72 55.8984 15.6075Z" fill="black"/>
<path fill-rule="evenodd" clip-rule="evenodd" d="M55.9023 27.106C55.9023 24.9943 54.6433 23.2825 53.0901 23.2825H3.09459C1.54143 23.2825 0.282345 24.9943 0.282345 27.106C0.282345 29.2176 1.54143 30.9294 3.09459 30.9294H53.0901C54.6433 30.9294 55.9023 29.2176 55.9023 27.106Z" fill="black"/>
</svg>
